<?xml version="1.0" encoding="UTF-8" standalone="no"?>
<svg
   height="24px"
   viewBox="0 -960 960 960"
   width="24px"
   fill="#1f1f1f"
   version="1.1"
   id="svg1"
   sodipodi:docname="mqtt.svg"
   inkscape:version="1.4.2 (f4327f4, 2025-05-13)"
   xmlns:inkscape="http://www.inkscape.org/namespaces/inkscape"
   xmlns:sodipodi="http://sodipodi.sourceforge.net/DTD/sodipodi-0.dtd"
   xmlns="http://www.w3.org/2000/svg"
   xmlns:svg="http://www.w3.org/2000/svg">
  <defs
     id="defs1" />
  <sodipodi:namedview
     id="namedview1"
     pagecolor="#ffffff"
     bordercolor="#000000"
     borderopacity="0.25"
     inkscape:showpageshadow="2"
     inkscape:pageopacity="0.0"
     inkscape:pagecheckerboard="0"
     inkscape:deskcolor="#d1d1d1"
     inkscape:zoom="33.666667"
     inkscape:cx="17.480198"
     inkscape:cy="11.435644"
     inkscape:window-width="1920"
     inkscape:window-height="1010"
     inkscape:window-x="-6"
     inkscape:window-y="-6"
     inkscape:window-maximized="1"
     inkscape:current-layer="svg1" />
  <path
     d="M200-120q-33 0-56.5-23.5T120-200q0-33 23.5-56.5T200-280q33 0 56.5 23.5T280-200q0 33-23.5 56.5T200-120Zm480 0q0-117-44-218.5T516-516q-76-76-177.5-120T120-680v-120q142 0 265 53t216 146q93 93 146 216t53 265H680Zm-240 0q0-67-25-124.5T346-346q-44-44-101.5-69T120-440v-120q92 0 171.5 34.5T431-431q60 60 94.5 139.5T560-120H440Z"
     id="path1" />
  <text
     xml:space="preserve"
     style="font-size:133.333px;font-family:'Myriad Pro';-inkscape-font-specification:'Myriad Pro';text-align:start;writing-mode:lr-tb;direction:ltr;text-anchor:start;fill:#666666;stroke:#dc0404;stroke-width:75.5904"
     x="466.53403"
     y="-708.53351"
     id="text1"><tspan
       sodipodi:role="line"
       id="tspan1"
       style="font-size:133.333px;fill:#000000;stroke:none;stroke-width:75.5906"
       x="466.53403"
       y="-708.53351">MQTT</tspan></text>
</svg>
